<svg xmlns="http://www.w3.org/2000/svg" xmlns:xlink="http://www.w3.org/1999/xlink" viewBox="0 0 50 50" version="1.1" width="50" height="50">
<g id="surface1">
<path style=" " d="M 25 1 C 11.757813 1 1 11.757813 1 25 C 1 38.242188 11.757813 49 25 49 C 38.242188 49 49 38.242188 49 25 C 49 11.757813 38.242188 1 25 1 Z M 25 3 C 37.160156 3 47 12.839844 47 25 C 47 37.160156 37.160156 47 25 47 C 12.839844 47 3 37.160156 3 25 C 3 12.839844 12.839844 3 25 3 Z M 21 10 L 21 13 L 16 13 L 16 37 L 21 37 L 21 40 L 23 40 L 23 37 L 25 37 L 25 40 L 27 40 L 27 37 C 29.300781 36.933594 34.8125 36.265625 34.8125 30.1875 C 34.8125 25.988281 31.1875 24.605469 29.6875 24.40625 L 29.6875 24.3125 C 30.386719 24.113281 33.90625 23.007813 33.90625 18.90625 C 33.90625 13.796875 29.058594 13.089844 27 13 L 27 10 L 25 10 L 25 13 L 23 13 L 23 10 Z M 18.3125 14.90625 L 26.1875 14.90625 C 29.789063 14.90625 31.59375 16.40625 31.59375 19.40625 C 31.59375 20.007813 31.511719 20.5 31.3125 21 C 31.113281 21.5 30.710938 21.914063 30.3125 22.3125 C 29.8125 22.710938 29.292969 22.988281 28.59375 23.1875 C 27.894531 23.386719 27.085938 23.5 26.1875 23.5 L 18.3125 23.5 Z M 18.3125 25.5 L 26.1875 25.5 C 28.1875 25.5 29.804688 25.886719 30.90625 26.6875 C 32.007813 27.488281 32.5 28.6875 32.5 30.1875 C 32.5 31.1875 32.300781 31.992188 32 32.59375 C 31.601563 33.195313 31.195313 33.695313 30.59375 34.09375 C 29.992188 34.492188 29.394531 34.804688 28.59375 34.90625 C 27.894531 35.007813 27.085938 35.09375 26.1875 35.09375 L 18.3125 35.09375 Z "/>
</g>
</svg>